# ProBuilder 5.2.4
# https://unity3d.com/unity/features/worldbuilding/probuilder
# 28.07.2025 11:35:31

mtllib ./limanzeminiambarlı.mtl
o limanzeminiambarlı

g Cube (3)
v 3.847748 -0.05252222 31.01154
v 0.3477478 -0.05252222 31.01154
v 3.847748 0.1474778 31.01154
v 0.3477478 0.1474778 31.01154
v 0.3477478 -0.05252222 -4.988464
v 0.3477478 0.1474778 -4.988464
v 3.847748 -0.05252222 -4.988464
v 3.847748 0.1474778 -4.988464
v 38.13315 0.0001 -40.98907
v 38.13315 0.0001 -22.98907
v 17.63315 0.0001 -40.98907
v 17.63315 0.0001 -22.98907
v 38.13315 0.0001 -4.989075
v 17.63315 0.0001 -4.989075
v -2.866852 0.0001 -40.98907
v -2.866852 0.0001 -22.98907
v -2.866852 0.0001 -4.989075
v 38.06079 -0.2156358 44.93756
v 35.06079 -0.2156358 44.93756
v 38.06079 -0.01563579 44.93756
v 35.06079 -0.01563579 44.93756
v 35.06079 -0.2156358 -5.062439
v 35.06079 -0.01563579 -5.062439
v 38.06079 -0.2156358 -5.062439
v 38.06079 -0.01563579 -5.062439
v 19.97078 -0.05563579 44.99756
v 16.97078 -0.05563579 44.99756
v 19.97078 0.1443642 44.99756
v 16.97078 0.1443642 44.99756
v 16.97078 -0.05563579 -5.002441
v 16.97078 0.1443642 -5.002441
v 19.97078 -0.05563579 -5.002441
v 19.97078 0.1443642 -5.002441

vt 3.847748 -0.05252222
vt 0.3477478 -0.05252222
vt 3.847748 0.1474778
vt 0.3477478 0.1474778
vt 31.01154 -0.05252222
vt -4.988464 -0.05252222
vt 31.01154 0.1474778
vt -4.988464 0.1474778
vt -0.3477478 -0.05252222
vt -3.847748 -0.05252222
vt -0.3477478 0.1474778
vt -3.847748 0.1474778
vt 4.988464 -0.05252222
vt -31.01154 -0.05252222
vt 4.988464 0.1474778
vt -31.01154 0.1474778
vt -3.847748 31.01154
vt -0.3477478 31.01154
vt -3.847748 -4.988464
vt -0.3477478 -4.988464
vt 3.847748 -4.988464
vt 0.3477478 -4.988464
vt 3.847748 31.01154
vt 0.3477478 31.01154
vt -20.77173 -17.61975
vt -20.77173 0.380249
vt -0.2717285 -17.61975
vt -0.2717285 0.380249
vt -20.77173 18.38025
vt -0.2717285 18.38025
vt 20.22827 -17.61975
vt 20.22827 0.380249
vt 20.22827 18.38025
vt -0.5792084 -0.05563579
vt -3.579208 -0.05563579
vt -0.5792084 0.1443642
vt -3.579208 0.1443642
vt 28.23755 -0.05563579
vt -21.76245 -0.05563579
vt 28.23755 0.1443642
vt -21.76245 0.1443642
vt 3.579208 -0.05563579
vt 0.5792084 -0.05563579
vt 3.579208 0.1443642
vt 0.5792084 0.1443642
vt 21.76245 -0.05563579
vt -28.23755 -0.05563579
vt 21.76245 0.1443642
vt -28.23755 0.1443642
vt 0.5792084 28.23755
vt 3.579208 28.23755
vt 0.5792084 -21.76245
vt 3.579208 -21.76245
vt -0.5792084 -21.76245
vt -3.579208 -21.76245
vt -0.5792084 28.23755
vt -3.579208 28.23755

vn 0 0 1
vn -1 0 0
vn 0 0 -1
vn 1 0 0
vn 0 1 0
vn 0 -1 0

usemtl 76d0b2de7dea207272711600e2f9fa24
f 3/3/1 4/4/1 2/2/1 1/1/1
f 4/7/2 6/8/2 5/6/2 2/5/2
f 6/11/3 8/12/3 7/10/3 5/9/3
f 8/15/4 3/16/4 1/14/4 7/13/4
f 8/19/5 6/20/5 4/18/5 3/17/5
f 1/23/6 2/24/6 5/22/6 7/21/6
f 11/27/5 12/28/5 10/26/5 9/25/5
f 12/28/5 14/30/5 13/29/5 10/26/5
f 15/31/5 16/32/5 12/28/5 11/27/5
f 16/32/5 17/33/5 14/30/5 12/28/5
f 20/36/1 21/37/1 19/35/1 18/34/1
f 21/40/2 23/41/2 22/39/2 19/38/2
f 23/44/3 25/45/3 24/43/3 22/42/3
f 25/48/4 20/49/4 18/47/4 24/46/4
f 25/52/5 23/53/5 21/51/5 20/50/5
f 18/56/6 19/57/6 22/55/6 24/54/6
f 28/36/1 29/37/1 27/35/1 26/34/1
f 29/40/2 31/41/2 30/39/2 27/38/2
f 31/44/3 33/45/3 32/43/3 30/42/3
f 33/48/4 28/49/4 26/47/4 32/46/4
f 33/52/5 31/53/5 29/51/5 28/50/5
f 26/56/6 27/57/6 30/55/6 32/54/6

